# xmcd
#
# Track frame offsets: 
#        150
#        24371
#        50994
#        62795
#        77546
#        110589
#        127300
#        159040
#        177443
#
# Disc length: 2574 seconds
#
# Revision: 0
# Processed by: cddbd v1.5.2PL0 Copyright (c) Steve Scherf et al.
# Submitted via: ExactAudioCopy v1.0b4
#
DISCID=760a0c09
DTITLE=Mark Searcy Band - Roadworthy
DYEAR=2011
DGENRE=Blues
TTITLE0=Voodoo Woman
TTITLE1=What You Are
TTITLE2=Loopty Loop
TTITLE3=Dust In The Sand
TTITLE4=Fiddlesticks
TTITLE5=I Live Alone
TTITLE6=Chocolate And Cherries
TTITLE7=Charlie's Cool
TTITLE8=Wang Dang Love Thang
EXTD=
EXTT0=
EXTT1=
EXTT2=
EXTT3=
EXTT4=
EXTT5=
EXTT6=
EXTT7=
EXTT8=
PLAYORDER=
